<?xml version="1.0" standalone="no"?>
<!DOCTYPE svg PUBLIC "-//W3C//DTD SVG 20010904//EN"
 "http://www.w3.org/TR/2001/REC-SVG-20010904/DTD/svg10.dtd">
<svg version="1.0" xmlns="http://www.w3.org/2000/svg"
 width="500.000000pt" height="500.000000pt" viewBox="0 0 500.000000 500.000000"
 preserveAspectRatio="xMidYMid meet">
<metadata>
Created by potrace 1.14, written by Peter Selinger 2001-2017
</metadata>
<g transform="translate(0.000000,500.000000) scale(0.100000,-0.100000)"
fill="#000000" stroke="none">
<path d="M0 2500 l0 -2500 2500 0 2500 0 0 2500 0 2500 -2500 0 -2500 0 0
-2500z m870 1423 c33 -16 191 -168 571 -550 478 -481 528 -534 559 -597 31
-61 35 -79 35 -145 -1 -85 -27 -157 -87 -234 -17 -23 -254 -265 -526 -539
-346 -347 -509 -504 -544 -523 -133 -73 -295 -24 -376 113 -24 41 -27 57 -27
132 0 68 5 93 22 125 12 22 217 236 462 480 l441 440 -440 440 c-487 488 -490
492 -489 610 1 113 52 195 150 244 57 29 71 32 134 29 46 -2 85 -11 115 -25z
m3642 -2074 c162 -35 255 -197 207 -359 -18 -61 -78 -131 -138 -162 l-53 -28
-987 0 -987 0 -52 26 c-164 81 -205 312 -79 442 44 46 88 71 139 81 69 14
1887 13 1950 0z"/>
</g>
</svg>
